<svg id="Calque_1" data-name="Calque 1" xmlns="http://www.w3.org/2000/svg" viewBox="0 0 402.9 304.4"><defs><style>.cls-1{fill:#1d3557;}.cls-2{fill:#477b9d;}</style></defs><title>logo-central-fab-v1</title><g id="_7pKvLQ.tif" data-name="7pKvLQ.tif"><path class="cls-1" d="M97.7,371.9c.2-.1.2-.4.3-3.1.7-23.8,0-47.7.1-71.5.1-13.6.3-27.1.4-40.6.1-1.6-.7-2.3-1.9-3C75,240,63,220,58.8,195.1c-2.9-17.9-.4-35,8.7-50.8a79.8,79.8,0,0,1,37.4-33.6c15.3-6.8,31.4-9.2,47.9-8.9,8.6.1,17,2.3,25.1,5.4l14.6,5.6c-.9-1.9-.9-1.9-2.7-6-1-1.5-1-2.5.8-3.5,6.1-3.3,6-3.4,9.4,2.6,6,10.6,11.9,21.2,17.8,31.8,1.7,3,1.6,3.2-1.7,3.3l-35.9.2-3.8.2c-3.8.2-3.8-1.2-3.9-3.6,0-5.9,0-5.9,5.9-5.9a57.4,57.4,0,0,0,7.1-.4,140.5,140.5,0,0,0-20.7-8c-12.7-3.9-25.3-2.6-37.9.4-18.4,4.2-32.8,13.9-42.5,30.2-6.8,11.4-8.9,23.6-6.9,36.6,2.3,14.8,9.4,27.2,19.4,38.1l.7.7c2.6,2.3,2.6,2.2,3.6-1.1a42.3,42.3,0,0,1,11.2-19.7c7.5-7.5,16.8-11.5,27.2-13.3,12.6-2.3,25.3-1.8,37.9-.5,7.2.8,10.7,8.8,7.2,15.2-1.9,3.3-4.9,4.4-8.5,4.2-7.1-.5-14.2-1.3-21.4-1.1s-16.9,1.4-24.4,6.1-11,12.5-12,21.4c-.2,1.5,1,1.7,2.2,2.1a78.1,78.1,0,0,0,19.9,2.5c11.9.3,23.7-.8,35.5-1,6.4-.1,9.9,3.2,9.9,9.2s-3.7,9.8-9.9,10c-11.3.4-22.7,1.1-34,1.3a101.8,101.8,0,0,1-20.6-1.8c-2.9-.6-3.6,0-3.7,3-.7,32.4,0,64.9-.2,97.3-.1,2.7,0,5.4,0,8.1l.5.3c1.9-2.8,3.8-5.5,5.5-8.4s1.6-1.4,3-.6c6.2,3.8,6.1,3.7,2.1,9.9-6.6,10.3-13.2,20.6-19.6,31.1-1.5,2.4-2.1,2.2-3.5-.1-7.2-11.7-14.4-23.3-21.7-34.9-.9-1.4-1.1-2.4.6-3.4,7.5-4.3,5.1-4.9,9.5,1.9l3.3,5" transform="translate(-57.7 -101)"/></g><path class="cls-2" d="M247.7,179a2.1,2.1,0,0,1-2.2,2H208.1c.5,11.3,7.1,16,15.4,16,4.9,0,8.2-1.7,10.9-5.9a2.6,2.6,0,0,1,2.5-1.5h7.4c1.6,0,2.3.9,1.7,2.4-4.3,10.3-13,15.8-23.5,15.8-15.4,0-26.5-11.5-26.5-29.2s11-30.1,27.4-30.1S248.7,162.1,247.7,179Zm-39-7.6h26.6c-.2-6.3-4.5-12-12.9-12S210.2,165.3,208.7,171.4Z" transform="translate(-57.7 -101)"/><path class="cls-2" d="M304.2,170.2V204a1.9,1.9,0,0,1-2.1,2.1h-8.7a1.9,1.9,0,0,1-2.1-2.1V173.3c0-8.6-3.9-13-10-13-7.6,0-13.3,6.1-12.6,19.2l.2,24.5a1.8,1.8,0,0,1-2,2.1h-8.7a1.9,1.9,0,0,1-2.1-2.1l.5-51.6a1.8,1.8,0,0,1,2-2.1h7.8a1.9,1.9,0,0,1,2.1,2.1v5.5h.9c4-6.3,9.3-9.3,16.2-9.3C296.6,148.6,304.2,156.5,304.2,170.2Z" transform="translate(-57.7 -101)"/><path class="cls-2" d="M344.3,158.4a1.9,1.9,0,0,1-2.1,2.1h-8.9l.2,43.5a1.9,1.9,0,0,1-2.1,2.1h-8.6a1.9,1.9,0,0,1-2.1-2.1l.2-43.5h-7.5a1.9,1.9,0,0,1-2.1-2.1v-6a1.9,1.9,0,0,1,2.1-2.1H321V131.2a1.9,1.9,0,0,1,2.1-2.1H331a1.9,1.9,0,0,1,2.1,2.1v19.1h9a1.9,1.9,0,0,1,2.1,2.1Z" transform="translate(-57.7 -101)"/><path class="cls-2" d="M381.6,159.6a1.8,1.8,0,0,1-2.1,2c-9.5.3-16.4,3.4-15.8,17.6l.2,24.8a1.8,1.8,0,0,1-2,2.1h-8.7a1.8,1.8,0,0,1-2-2.1l.4-51.6a1.8,1.8,0,0,1,2-2.1h7.8a1.9,1.9,0,0,1,2.1,2.1v5.3h.9a22.3,22.3,0,0,1,14.9-9,1.9,1.9,0,0,1,2.2,2.1Z" transform="translate(-57.7 -101)"/><path class="cls-2" d="M433.8,168.5l.4,35.5a1.9,1.9,0,0,1-2.1,2.1h-8.2a1.9,1.9,0,0,1-2.1-2.1v-6.3h-.8c-3.7,5.7-10.5,9.6-18.8,9.6-10,0-16.8-5.7-16.8-15.8,0-11.8,9.1-17.1,29.6-19.5,4.6-.5,6.8-2.3,6.8-5.5s-4.2-7.5-10.8-7.5-9.1,2.2-10.8,6.3a2.4,2.4,0,0,1-2.4,1.6h-7.3c-1.5,0-2.3-.7-2-1.8,2.6-9.8,10.6-16.5,23.4-16.5S433.8,155.9,433.8,168.5Zm-12.5,11.1a44.1,44.1,0,0,1-7.3,1.7c-10.4,1.6-16.6,3.9-16.6,9.4,0,3.7,2.6,6,7.8,6,10.3,0,17.1-7.9,16.7-14v-2.8Z" transform="translate(-57.7 -101)"/><path class="cls-2" d="M460.5,204a1.9,1.9,0,0,1-2.1,2.1h-8.6a1.9,1.9,0,0,1-2.1-2.1l.4-74a1.9,1.9,0,0,1,2.1-2H458a1.8,1.8,0,0,1,2.1,2Z" transform="translate(-57.7 -101)"/><path class="cls-2" d="M193.2,300.3l.4,35.5a1.9,1.9,0,0,1-2.1,2.1h-8.2a1.9,1.9,0,0,1-2.1-2.1v-6.3h-.8c-3.8,5.7-10.5,9.5-18.8,9.5-10,0-16.9-5.7-16.9-15.8,0-11.7,9.2-17,29.6-19.4,4.6-.5,6.9-2.3,6.9-5.5s-4.3-7.5-10.8-7.5-9.2,2.2-10.8,6.2a2.4,2.4,0,0,1-2.4,1.7h-7.4c-1.4,0-2.3-.7-2-1.9,2.6-9.7,10.6-16.4,23.4-16.4S193.2,287.7,193.2,300.3Zm-12.5,11.1a61.7,61.7,0,0,1-7.3,1.7c-10.4,1.6-16.6,3.9-16.6,9.4,0,3.7,2.6,5.9,7.8,5.9,10.3,0,17-7.9,16.7-13.9v-2.8Z" transform="translate(-57.7 -101)"/><path class="cls-2" d="M258.2,310.7c0,16.7-9.3,28.9-22.9,28.9a19.5,19.5,0,0,1-17-9.1h-.7v5.3a1.9,1.9,0,0,1-2.1,2.1h-8.3a1.9,1.9,0,0,1-2.1-2.1l.4-74a1.9,1.9,0,0,1,2.1-2.1h7.5a1.9,1.9,0,0,1,2.1,2.1l.2,23.9h.6c3.5-3.8,8-5.3,13.7-5.3C247.5,280.4,258.2,292.6,258.2,310.7Zm-12.2-.2c0-12.7-5.9-19.4-14.2-19.4s-15.3,6.8-14.9,19.1,6.7,18.5,15.1,18.5S246,321.9,246,310.5Z" transform="translate(-57.7 -101)"/></svg>